# xmcd
#
# Track frame offsets:
#   150
#   14175
#   29684
#   47134
#   62954
#   77491
#   91187
#   102535
#   115811
#   151208
#   169204
#   184775
#   202104
#
# Disc length: 2924 seconds
#
# Revision: 0
# Processed by: cddbd v1.5.1PL0 Copyright (c) Steve Scherf et al.
# Submitted via: Media_Universe 3.0
#
DISCID=b40b6a0d
DTITLE=LONESTAR - Lonestar
DYEAR=2004
DGENRE=Country
TTITLE0=Heartbroke Everyday
TTITLE1=Tequilla Talkin
TTITLE2=I Love The Way You Do That
TTITLE3=Running Away With My Heart
TTITLE4=What Would It Take
TTITLE5=Does Your Daddy Know About Me
TTITLE6=Ragtop Cadillac
TTITLE7=No News
TTITLE8=Paradise Knife And Gun Club
TTITLE9=When Cowboy's Didn't Dance
TTITLE10=Tell Her That You Love Her
TTITLE11=Walking In Memphis
TTITLE12=I Pray
EXTD=
EXTT0=
EXTT1=
EXTT2=
EXTT3=
EXTT4=
EXTT5=
EXTT6=
EXTT7=
EXTT8=
EXTT9=
EXTT10=
EXTT11=
EXTT12=
PLAYORDER=
